HIERARCHY
ROOT Hips
{
    OFFSET 0.0 0.0 0.0
    CHANNELS 6 Xposition Yposition Zposition Zrotation Xrotation Yrotation
    JOINT Spine
    {
        OFFSET 0.0 5.0 0.0
        CHANNELS 3 Zrotation Xrotation Yrotation
        JOINT Chest
        {
            OFFSET 0.0 5.0 0.0
            CHANNELS 3 Zrotation Xrotation Yrotation
            JOINT Neck
            {
                OFFSET 0.0 8.0 0.0
                CHANNELS 3 Zrotation Xrotation Yrotation
                JOINT Head
                {
                    OFFSET 0.0 5.0 0.0
                    CHANNELS 3 Zrotation Xrotation Yrotation
                    End Site
                    {
                        OFFSET 0.0 3.0 0.0
                    }
                }
            }
            JOINT LeftShoulder
            {
                OFFSET -5.0 0.0 0.0
                CHANNELS 3 Zrotation Xrotation Yrotation
                JOINT LeftArm
                {
                    OFFSET 0.0 -10.0 0.0
                    CHANNELS 3 Zrotation Xrotation Yrotation
                    JOINT LeftForeArm
                    {
                        OFFSET 0.0 -10.0 0.0
                        CHANNELS 3 Zrotation Xrotation Yrotation
                        End Site
                        {
                            OFFSET 0.0 -3.0 0.0
                        }
                    }
                }
            }
        }
    }
}

MOTION
Frames: 29
Frame Time: 0.033333
960.000000 445.000000 109.789733 0.000000 0.000000 0.000000 0.000000 0.000000 0.000000 23.025492 -15.629409 0.000000 180.000000 6.084224 0.000000 21.801409 -3.302100 -0.000000 158.198591 -3.371969 30.000000 15.945396 9.057444 0.000000 18.000000 -0.115195 0.000000
1691.525230 140.756605 100.042876 0.000000 0.000000 0.000000 0.000000 0.000000 0.000000 -163.376529 3.959424 4.973798 16.623471 -1.571899 4.973798 -171.853121 -3.196636 3.759997 99.744051 26.234976 29.763441 -171.126653 -4.157513 -3.759997 0.673538 0.411413 0.313953
1636.048050 128.802021 101.505527 0.000000 0.000000 0.000000 0.000000 0.000000 0.000000 157.904128 -15.515751 9.635073 -22.095872 30.084091 9.635073 -171.936471 -4.040813 7.460697 -143.675701 -1.462565 29.057495 -173.500805 -3.591462 -7.460697 0.570999 0.445116 0.626666
1578.156967 80.474526 89.981047 0.000000 0.000000 0.000000 0.000000 0.000000 0.000000 -139.519796 -8.274120 13.690942 40.480204 9.518356 13.690942 -174.507724 -4.051253 11.043737 119.111399 1.090344 27.893295 -173.607258 -3.835813 -11.043737 0.461920 0.467814 0.936907
960.418757 444.998421 118.427162 0.000000 0.000000 0.000000 0.000000 0.000000 0.000000 25.077893 -35.807226 16.886559 180.000000 4.437839 16.886559 23.861935 7.756949 14.452610 156.138065 12.494012 26.289200 17.903699 -10.272280 -14.452610 18.000000 0.435717 1.243449
960.523360 444.997533 133.809220 0.000000 0.000000 0.000000 0.000000 0.000000 0.000000 25.638906 25.138752 19.021130 180.000000 -1.751605 19.021130 24.425035 -5.355227 17.633558 155.574965 5.406311 24.270510 18.452907 -3.416846 -17.633558 18.000000 0.191288 1.545085
960.627905 444.996447 118.527009 0.000000 0.000000 0.000000 0.000000 0.000000 0.000000 26.219073 -10.295545 19.960535 180.000000 11.787653 19.960535 25.006291 1.609877 20.536413 154.993709 -4.025190 21.869059 19.024920 11.300085 -20.536413 18.000000 0.221905 1.840623
1126.242828 420.359820 122.034205 0.000000 0.000000 0.000000 0.000000 0.000000 0.000000 31.410514 -2.337414 19.645745 -148.589486 -3.970639 19.645745 32.280463 4.367807 23.115397 -131.603972 -1.281143 19.122720 45.585331 1.610239 -23.115397 -13.449727 -0.069769 2.128896
1257.895088 650.549197 127.009004 0.000000 0.000000 0.000000 0.000000 0.000000 0.000000 25.073180 -11.700518 18.096541 -154.926820 0.005519 18.096541 46.260945 10.812148 25.329838 -154.651428 -5.335384 16.074804 27.339487 5.162626 -25.329838 -13.619892 0.301742 2.408768
960.941083 444.992008 142.209239 0.000000 0.000000 0.000000 0.000000 0.000000 0.000000 28.072001 12.793683 15.410265 180.000000 -1.833388 15.410265 26.849221 11.037043 27.144812 153.150779 -4.942526 12.773379 20.864045 -3.653890 -27.144812 18.000000 0.377864 2.679134
1163.815842 547.748709 146.007824 0.000000 0.000000 0.000000 0.000000 0.000000 0.000000 117.162728 9.971414 11.755705 -62.837272 -12.216862 11.755705 102.363764 -4.732008 28.531695 -47.376450 -2.959250 9.270510 104.768601 1.229515 -28.531695 -6.003489 -0.134530 2.938926
961.149372 444.988063 136.155412 0.000000 0.000000 0.000000 0.000000 0.000000 0.000000 29.395983 22.300334 7.362491 180.000000 5.771857 7.362491 28.146217 2.097635 29.468618 151.853783 3.601379 5.621439 22.170006 6.521292 -29.468618 18.000000 -1.395901 3.187120
1136.717377 590.104480 128.094385 0.000000 0.000000 0.000000 0.000000 0.000000 0.000000 115.752126 -1.849829 2.506665 -64.247874 0.276225 2.506665 73.638146 -2.933419 29.940802 -21.842452 2.488151 1.883716 75.369282 -4.124596 -29.940802 -6.767207 0.776552 3.422736
1163.079758 634.077559 136.508129 0.000000 0.000000 0.000000 0.000000 0.000000 0.000000 132.174340 1.089932 -2.506665 -47.825660 -2.950201 -2.506665 94.255711 3.098071 29.940802 -149.364979 -7.298040 -1.883716 30.021641 5.147542 -29.940802 -5.096180 0.893519 3.644843
961.460830 444.980668 159.597040 0.000000 0.000000 0.000000 0.000000 0.000000 0.000000 31.497152 -39.922961 -7.362491 180.000000 -1.539333 -7.362491 30.152455 2.388016 29.468618 149.847545 19.757507 -5.621439 24.175589 -20.364074 -29.468618 18.000000 1.821190 3.852566
1097.449951 565.089898 164.483376 0.000000 0.000000 0.000000 0.000000 0.000000 0.000000 -119.219568 1.240646 -11.755705 60.780432 -1.111939 -11.755705 -150.180642 -6.612118 28.531695 48.804955 0.295543 -9.270510 -149.874178 -6.219330 -28.531695 2.713854 0.609971 4.045085
1114.140244 528.302071 135.165876 0.000000 0.000000 0.000000 0.000000 0.000000 0.000000 -142.671523 -3.571039 -15.410265 37.328477 1.230826 -15.410265 -177.395681 1.872634 27.144812 34.687329 0.980913 -12.773379 161.894167 -4.267102 -27.144812 -0.910956 0.325216 4.221640
1116.433640 479.728639 150.592095 0.000000 0.000000 0.000000 0.000000 0.000000 0.000000 -102.267481 1.811854 -18.096541 77.732519 6.472664 -18.096541 -163.695626 -4.786973 25.329838 38.575767 1.060583 -16.074804 -176.001122 0.258120 -25.329838 0.706594 -0.037282 4.381533
1135.931282 466.493965 140.036178 0.000000 0.000000 0.000000 0.000000 0.000000 0.000000 -112.868406 10.949830 -19.645745 67.131594 -7.235856 -19.645745 -159.517862 -2.163357 23.115397 36.204678 -1.897470 -19.122720 -154.426613 -5.607361 -23.115397 2.428729 0.533376 4.524135
1141.618767 467.420679 142.274213 0.000000 0.000000 0.000000 0.000000 0.000000 0.000000 -123.086385 13.289419 -19.960535 56.913615 -8.716637 -19.960535 -154.885724 0.918680 20.536413 36.481623 0.565881 -21.869059 -153.965441 -6.594322 -20.536413 2.446728 0.525298 4.648882
1150.647926 469.370956 152.224787 0.000000 0.000000 0.000000 0.000000 0.000000 0.000000 -43.953779 -19.112289 -19.021130 136.046221 -37.347059 -19.021130 -154.327268 -6.407597 17.633558 60.745168 1.628072 -24.270510 -153.350642 -7.083495 -17.633558 2.386216 0.669026 4.755283
1151.529922 496.420240 148.480464 0.000000 0.000000 0.000000 0.000000 0.000000 0.000000 -116.362129 -4.586047 -16.886559 63.637871 0.443377 -16.886559 -149.081043 7.279789 14.452610 35.941860 5.186342 -26.289200 -156.847177 -1.113922 -14.452610 2.056513 -0.012637 4.842916
1148.402367 515.713574 140.037261 0.000000 0.000000 0.000000 0.000000 0.000000 0.000000 -118.252650 6.097011 -13.690942 61.747350 -2.395793 -13.690942 -138.082896 2.887111 11.043737 -156.312677 -6.772903 -27.893295 21.649626 9.634296 -11.043737 2.962417 0.012809 4.911436
1175.363617 533.368646 135.825350 0.000000 0.000000 0.000000 0.000000 0.000000 0.000000 -95.476638 10.254286 -9.635073 84.523362 -3.105791 -9.635073 -113.907461 -4.304753 7.460697 -155.995907 -7.182717 -29.057495 12.512064 7.825188 -7.460697 -16.748794 -0.782519 4.960574
1199.533310 485.991104 136.077192 0.000000 0.000000 0.000000 0.000000 0.000000 0.000000 -100.003195 -4.906206 -4.973798 79.996805 -3.487478 -4.973798 -86.083188 4.959146 3.759997 38.843754 -2.980389 -29.763441 -106.539452 0.100946 -3.759997 6.197806 -0.018958 4.990134
962.588190 444.938442 131.695266 0.000000 0.000000 0.000000 0.000000 0.000000 0.000000 39.579754 23.505788 -0.000000 180.000000 -3.668786 -0.000000 36.680773 -7.276628 0.000000 143.319227 -25.280707 -30.000000 29.388385 5.603162 -0.000000 18.000000 0.176527 5.000000
1142.094727 445.716287 128.979470 0.000000 0.000000 0.000000 0.000000 0.000000 0.000000 -140.228454 19.229555 4.973798 39.771546 -18.905544 4.973798 -156.118008 -5.675419 -3.759997 3.479189 -0.648951 -29.763441 -158.005660 -5.721619 3.759997 2.150019 0.595217 4.990134
1164.005928 424.847746 115.380817 0.000000 0.000000 0.000000 0.000000 0.000000 0.000000 -84.241076 -38.517671 9.635073 95.758924 10.472199 9.635073 -156.181584 -5.747924 -7.460697 166.928360 16.917881 -29.057495 -154.947270 -7.058634 7.460697 2.644196 0.736338 4.960574
1124.208755 418.286655 117.829359 0.000000 0.000000 0.000000 0.000000 0.000000 0.000000 -117.427077 -0.475623 13.690942 62.572923 6.349864 13.690942 -155.943063 -5.809974 -11.043737 14.023837 -14.654373 -27.893295 -157.382674 -4.813698 11.043737 2.188130 0.511179 4.911436
